<!-- Generated by IcoMoon.io -->
<svg version="1.1" xmlns="http://www.w3.org/2000/svg" width="512" height="448" viewBox="0 0 512 448">
<title></title>
<g id="icomoon-ignore">
</g>
<path fill="#000" d="M480 192c17.75 0 32 14.25 32 32s-14.25 32-32 32h-3.75l-28.75 165.5c-2.75 15.25-16 26.5-31.5 26.5h-320c-15.5 0-28.75-11.25-31.5-26.5l-28.75-165.5h-3.75c-17.75 0-32-14.25-32-32s14.25-32 32-32h448zM121.25 392c8.75-0.75 15.5-8.5 14.75-17.25l-8-104c-0.75-8.75-8.5-15.5-17.25-14.75s-15.5 8.5-14.75 17.25l8 104c0.75 8.25 7.75 14.75 16 14.75h1.25zM224 376v-104c0-8.75-7.25-16-16-16s-16 7.25-16 16v104c0 8.75 7.25 16 16 16s16-7.25 16-16zM320 376v-104c0-8.75-7.25-16-16-16s-16 7.25-16 16v104c0 8.75 7.25 16 16 16s16-7.25 16-16zM408 377.25l8-104c0.75-8.75-6-16.5-14.75-17.25s-16.5 6-17.25 14.75l-8 104c-0.75 8.75 6 16.5 14.75 17.25h1.25c8.25 0 15.25-6.5 16-14.75zM119 73l-23.25 103h-33l25.25-110.25c6.5-29.25 32.25-49.75 62.25-49.75h41.75c0-8.75 7.25-16 16-16h96c8.75 0 16 7.25 16 16h41.75c30 0 55.75 20.5 62.25 49.75l25.25 110.25h-33l-23.25-103c-3.5-14.75-16.25-25-31.25-25h-41.75c0 8.75-7.25 16-16 16h-96c-8.75 0-16-7.25-16-16h-41.75c-15 0-27.75 10.25-31.25 25z"></path>
</svg>
